<mxfile host="65bd71144e">
    <diagram id="-zmcCSXWewOiJTIEjJnk" name="Page-1">
        <mxGraphModel dx="1674" dy="779" grid="1" gridSize="10" guides="1" tooltips="1" connect="1" arrows="1" fold="1" page="1" pageScale="1" pageWidth="850" pageHeight="1100" math="0" shadow="0">
            <root>
                <mxCell id="0"/>
                <mxCell id="1" parent="0"/>
                <mxCell id="60" style="edgeStyle=none;html=1;" parent="1" target="45" edge="1">
                    <mxGeometry relative="1" as="geometry">
                        <mxPoint x="70" y="152" as="sourcePoint"/>
                    </mxGeometry>
                </mxCell>
                <mxCell id="44" value="ClientAdvisor" style="shape=umlActor;verticalLabelPosition=bottom;verticalAlign=top;html=1;outlineConnect=0;" parent="1" vertex="1">
                    <mxGeometry x="40" y="115" width="30" height="60" as="geometry"/>
                </mxCell>
                <mxCell id="2" value="addClient" style="shape=table;childLayout=tableLayout;startSize=40;collapsible=0;recursiveResize=0;expand=0;fontStyle=1;" parent="1" vertex="1">
                    <mxGeometry x="140" y="20" width="850" height="400" as="geometry"/>
                </mxCell>
                <mxCell id="3" value="Client" style="shape=tableRow;horizontal=0;startSize=40;swimlaneHead=0;swimlaneBody=0;top=0;left=0;bottom=0;right=0;dropTarget=0;fillColor=none;collapsible=0;recursiveResize=0;expand=0;fontStyle=1;" parent="2" vertex="1">
                    <mxGeometry y="40" width="850" height="140" as="geometry"/>
                </mxCell>
                <mxCell id="4" value="Controller" style="swimlane;swimlaneHead=0;swimlaneBody=0;fontStyle=0;connectable=0;fillColor=none;startSize=40;collapsible=0;recursiveResize=0;expand=0;fontStyle=1;" parent="3" vertex="1">
                    <mxGeometry x="40" width="170" height="140" as="geometry">
                        <mxRectangle width="170" height="140" as="alternateBounds"/>
                    </mxGeometry>
                </mxCell>
                <mxCell id="45" value="addClient" style="rounded=1;whiteSpace=wrap;html=1;" parent="4" vertex="1">
                    <mxGeometry x="25" y="62" width="120" height="60" as="geometry"/>
                </mxCell>
                <mxCell id="5" value="Service" style="swimlane;swimlaneHead=0;swimlaneBody=0;fontStyle=0;connectable=0;fillColor=none;startSize=40;collapsible=0;recursiveResize=0;expand=0;fontStyle=1;" parent="3" vertex="1">
                    <mxGeometry x="210" width="311" height="140" as="geometry">
                        <mxRectangle width="311" height="140" as="alternateBounds"/>
                    </mxGeometry>
                </mxCell>
                <mxCell id="61" value="addClient" style="rounded=1;whiteSpace=wrap;html=1;" parent="5" vertex="1">
                    <mxGeometry x="20" y="72" width="90" height="40" as="geometry"/>
                </mxCell>
                <mxCell id="80" value="saveClient" style="rounded=1;whiteSpace=wrap;html=1;" parent="5" vertex="1">
                    <mxGeometry x="180" y="77" width="100" height="30" as="geometry"/>
                </mxCell>
                <mxCell id="141" style="edgeStyle=none;html=1;exitX=1;exitY=0.5;exitDx=0;exitDy=0;entryX=0;entryY=0.5;entryDx=0;entryDy=0;" parent="5" source="61" target="80" edge="1">
                    <mxGeometry relative="1" as="geometry"/>
                </mxCell>
                <mxCell id="6" value="Repository" style="swimlane;swimlaneHead=0;swimlaneBody=0;fontStyle=0;connectable=0;fillColor=none;startSize=40;collapsible=0;recursiveResize=0;expand=0;fontStyle=1;" parent="3" vertex="1">
                    <mxGeometry x="521" width="177" height="140" as="geometry">
                        <mxRectangle width="177" height="140" as="alternateBounds"/>
                    </mxGeometry>
                </mxCell>
                <mxCell id="92" value="saveClient" style="rounded=1;whiteSpace=wrap;html=1;" parent="6" vertex="1">
                    <mxGeometry x="38.5" y="77" width="100" height="30" as="geometry"/>
                </mxCell>
                <mxCell id="23" value="Entity" style="swimlane;swimlaneHead=0;swimlaneBody=0;fontStyle=0;connectable=0;fillColor=none;startSize=40;collapsible=0;recursiveResize=0;expand=0;fontStyle=1;" parent="3" vertex="1">
                    <mxGeometry x="698" width="152" height="140" as="geometry">
                        <mxRectangle width="152" height="140" as="alternateBounds"/>
                    </mxGeometry>
                </mxCell>
                <mxCell id="50" value="Client" style="swimlane;whiteSpace=wrap;html=1;" parent="23" vertex="1">
                    <mxGeometry x="45" y="72" width="75" height="40" as="geometry"/>
                </mxCell>
                <mxCell id="64" style="edgeStyle=none;html=1;exitX=1;exitY=0.5;exitDx=0;exitDy=0;entryX=0;entryY=0.5;entryDx=0;entryDy=0;" parent="3" source="45" target="61" edge="1">
                    <mxGeometry relative="1" as="geometry"/>
                </mxCell>
                <mxCell id="95" style="edgeStyle=none;html=1;exitX=1;exitY=0.5;exitDx=0;exitDy=0;entryX=0;entryY=0.5;entryDx=0;entryDy=0;" parent="3" source="92" target="50" edge="1">
                    <mxGeometry relative="1" as="geometry">
                        <mxPoint x="755" y="77" as="targetPoint"/>
                        <Array as="points"/>
                    </mxGeometry>
                </mxCell>
                <mxCell id="143" style="edgeStyle=none;html=1;exitX=1;exitY=0.5;exitDx=0;exitDy=0;entryX=0;entryY=0.5;entryDx=0;entryDy=0;" parent="3" source="80" target="92" edge="1">
                    <mxGeometry relative="1" as="geometry"/>
                </mxCell>
                <mxCell id="29" value="Status" style="shape=tableRow;horizontal=0;startSize=40;swimlaneHead=0;swimlaneBody=0;top=0;left=0;bottom=0;right=0;dropTarget=0;fillColor=none;collapsible=0;recursiveResize=0;expand=0;fontStyle=1;" parent="2" vertex="1">
                    <mxGeometry y="180" width="850" height="94" as="geometry"/>
                </mxCell>
                <mxCell id="30" style="swimlane;swimlaneHead=0;swimlaneBody=0;fontStyle=0;connectable=0;fillColor=none;startSize=0;collapsible=0;recursiveResize=0;expand=0;fontStyle=1;" parent="29" vertex="1">
                    <mxGeometry x="40" width="170" height="94" as="geometry">
                        <mxRectangle width="170" height="94" as="alternateBounds"/>
                    </mxGeometry>
                </mxCell>
                <mxCell id="31" value="" style="swimlane;swimlaneHead=0;swimlaneBody=0;fontStyle=0;connectable=0;fillColor=none;startSize=0;collapsible=0;recursiveResize=0;expand=0;fontStyle=1;" parent="29" vertex="1">
                    <mxGeometry x="210" width="311" height="94" as="geometry">
                        <mxRectangle width="311" height="94" as="alternateBounds"/>
                    </mxGeometry>
                </mxCell>
                <mxCell id="32" style="swimlane;swimlaneHead=0;swimlaneBody=0;fontStyle=0;connectable=0;fillColor=none;startSize=0;collapsible=0;recursiveResize=0;expand=0;fontStyle=1;" parent="29" vertex="1">
                    <mxGeometry x="521" width="177" height="94" as="geometry">
                        <mxRectangle width="177" height="94" as="alternateBounds"/>
                    </mxGeometry>
                </mxCell>
                <mxCell id="54" value="fetchStatus" style="rounded=1;whiteSpace=wrap;html=1;" parent="32" vertex="1">
                    <mxGeometry x="38.5" y="20" width="120" height="60" as="geometry"/>
                </mxCell>
                <mxCell id="33" style="swimlane;swimlaneHead=0;swimlaneBody=0;fontStyle=0;connectable=0;fillColor=none;startSize=0;collapsible=0;recursiveResize=0;expand=0;fontStyle=1;" parent="29" vertex="1">
                    <mxGeometry x="698" width="152" height="94" as="geometry">
                        <mxRectangle width="152" height="94" as="alternateBounds"/>
                    </mxGeometry>
                </mxCell>
                <mxCell id="46" value="Status" style="swimlane;whiteSpace=wrap;html=1;" parent="33" vertex="1">
                    <mxGeometry x="45" y="30" width="75" height="40" as="geometry"/>
                </mxCell>
                <mxCell id="55" style="edgeStyle=none;html=1;exitX=0;exitY=0.5;exitDx=0;exitDy=0;entryX=1;entryY=0.5;entryDx=0;entryDy=0;" parent="29" source="46" target="54" edge="1">
                    <mxGeometry relative="1" as="geometry"/>
                </mxCell>
                <mxCell id="34" value="OverallDevice" style="shape=tableRow;horizontal=0;startSize=40;swimlaneHead=0;swimlaneBody=0;top=0;left=0;bottom=0;right=0;dropTarget=0;fillColor=none;collapsible=0;recursiveResize=0;expand=0;fontStyle=1;" parent="2" vertex="1">
                    <mxGeometry y="274" width="850" height="126" as="geometry"/>
                </mxCell>
                <mxCell id="35" style="swimlane;swimlaneHead=0;swimlaneBody=0;fontStyle=0;connectable=0;fillColor=none;startSize=0;collapsible=0;recursiveResize=0;expand=0;fontStyle=1;" parent="34" vertex="1">
                    <mxGeometry x="40" width="170" height="126" as="geometry">
                        <mxRectangle width="170" height="126" as="alternateBounds"/>
                    </mxGeometry>
                </mxCell>
                <mxCell id="36" style="swimlane;swimlaneHead=0;swimlaneBody=0;fontStyle=0;connectable=0;fillColor=none;startSize=0;collapsible=0;recursiveResize=0;expand=0;fontStyle=1;" parent="34" vertex="1">
                    <mxGeometry x="210" width="311" height="126" as="geometry">
                        <mxRectangle width="311" height="126" as="alternateBounds"/>
                    </mxGeometry>
                </mxCell>
                <mxCell id="127" value="fetchStatus&lt;span style=&quot;color: rgba(0, 0, 0, 0); font-family: monospace; font-size: 0px; text-align: start;&quot;&gt;3CmxGraphModel%3E%3Croot%3E%3CmxCell%20id%3D%220%22%2F%3E%3CmxCell%20id%3D%221%22%20parent%3D%220%22%2F%3E%3CmxCell%20id%3D%222%22%20value%3D%22fetchStatus%22%20style%3D%22rounded%3D1%3BwhiteSpace%3Dwrap%3Bhtml%3D1%3B%22%20vertex%3D%221%22%20parent%3D%221%22%3E%3CmxGeometry%20x%3D%22482.5%22%20y%3D%22150%22%20width%3D%22120%22%20height%3D%2260%22%20as%3D%22geometry%22%2F%3E%3C%2FmxCell%3E%3C%2Froot%3E%3C%2FmxGraphModel&lt;/span&gt;" style="rounded=1;whiteSpace=wrap;html=1;" parent="36" vertex="1">
                    <mxGeometry x="150" y="15" width="100" height="30" as="geometry"/>
                </mxCell>
                <mxCell id="157" style="edgeStyle=none;html=1;exitX=0.5;exitY=0;exitDx=0;exitDy=0;entryX=0.5;entryY=1;entryDx=0;entryDy=0;" parent="36" source="160" target="127" edge="1">
                    <mxGeometry relative="1" as="geometry">
                        <mxPoint x="150" y="40" as="targetPoint"/>
                        <Array as="points"/>
                    </mxGeometry>
                </mxCell>
                <mxCell id="160" value="saveOverallDevice" style="rounded=1;whiteSpace=wrap;html=1;" parent="36" vertex="1">
                    <mxGeometry x="150" y="60" width="100" height="30" as="geometry"/>
                </mxCell>
                <mxCell id="163" value="OverallDevice" style="swimlane;whiteSpace=wrap;html=1;startSize=23;" parent="36" vertex="1">
                    <mxGeometry x="523" y="55" width="85" height="40" as="geometry"/>
                </mxCell>
                <mxCell id="162" value="saveOverallDevice" style="rounded=1;whiteSpace=wrap;html=1;" parent="36" vertex="1">
                    <mxGeometry x="349.5" y="60" width="100" height="30" as="geometry"/>
                </mxCell>
                <mxCell id="164" style="edgeStyle=none;html=1;exitX=1;exitY=0.5;exitDx=0;exitDy=0;entryX=0;entryY=0.5;entryDx=0;entryDy=0;" parent="36" source="162" target="163" edge="1">
                    <mxGeometry relative="1" as="geometry">
                        <Array as="points">
                            <mxPoint x="470" y="74.5"/>
                        </Array>
                    </mxGeometry>
                </mxCell>
                <mxCell id="165" style="edgeStyle=none;html=1;exitX=1;exitY=0.5;exitDx=0;exitDy=0;entryX=0;entryY=0.5;entryDx=0;entryDy=0;" parent="36" source="160" target="162" edge="1">
                    <mxGeometry relative="1" as="geometry">
                        <Array as="points">
                            <mxPoint x="290" y="74.5"/>
                        </Array>
                    </mxGeometry>
                </mxCell>
                <mxCell id="37" style="swimlane;swimlaneHead=0;swimlaneBody=0;fontStyle=0;connectable=0;fillColor=none;startSize=0;collapsible=0;recursiveResize=0;expand=0;fontStyle=1;" parent="34" vertex="1">
                    <mxGeometry x="521" width="177" height="126" as="geometry">
                        <mxRectangle width="177" height="126" as="alternateBounds"/>
                    </mxGeometry>
                </mxCell>
                <mxCell id="38" style="swimlane;swimlaneHead=0;swimlaneBody=0;fontStyle=0;connectable=0;fillColor=none;startSize=0;collapsible=0;recursiveResize=0;expand=0;fontStyle=1;" parent="34" vertex="1">
                    <mxGeometry x="698" width="152" height="126" as="geometry">
                        <mxRectangle width="152" height="126" as="alternateBounds"/>
                    </mxGeometry>
                </mxCell>
                <mxCell id="176" style="edgeStyle=orthogonalEdgeStyle;html=1;exitX=0;exitY=0.5;exitDx=0;exitDy=0;entryX=1;entryY=0.5;entryDx=0;entryDy=0;" parent="2" source="54" target="127" edge="1">
                    <mxGeometry relative="1" as="geometry"/>
                </mxCell>
                <mxCell id="142" style="edgeStyle=orthogonalEdgeStyle;html=1;exitX=1;exitY=0.75;exitDx=0;exitDy=0;entryX=0;entryY=0.5;entryDx=0;entryDy=0;" parent="2" source="61" target="160" edge="1">
                    <mxGeometry relative="1" as="geometry">
                        <mxPoint x="265" y="440" as="targetPoint"/>
                    </mxGeometry>
                </mxCell>
            </root>
        </mxGraphModel>
    </diagram>
</mxfile>